<svg width="42" height="41" viewBox="0 0 42 41" fill="none" xmlns="http://www.w3.org/2000/svg">
<g clip-path="url(#clip0_1_837)">
<path d="M20.9999 0.77356C9.40794 0.77356 -6.10352e-05 9.78428 -6.10352e-05 20.8868C-6.10352e-05 31.9893 9.40794 41 20.9999 41C32.5919 41 41.9999 31.9893 41.9999 20.8868C41.9999 9.78428 32.5919 0.77356 20.9999 0.77356ZM20.9999 6.80752C24.4859 6.80752 27.2999 9.50269 27.2999 12.8415C27.2999 16.1803 24.4859 18.8754 20.9999 18.8754C17.5139 18.8754 14.6999 16.1803 14.6999 12.8415C14.6999 9.50269 17.5139 6.80752 20.9999 6.80752ZM20.9999 35.3683C15.7499 35.3683 11.1089 32.7938 8.39994 28.8918C8.46294 24.8893 16.7999 22.697 20.9999 22.697C25.1789 22.697 33.5369 24.8893 33.5999 28.8918C30.8909 32.7938 26.2499 35.3683 20.9999 35.3683Z" fill="#2E3A59"/>
</g>
<defs>
<clipPath id="clip0_1_837">
<rect width="42" height="41" fill="white"/>
</clipPath>
</defs>
</svg>
